# xmcd
#
# Track frame offsets:
#	150
#	14833
#	30728
#	45778
#	63667
#	77917
#	93054
#	105640
#	120543
#	138512
#	155874
#	175683
#
# Disc length: 2693 seconds
#
# Revision: 1
# Processed by: cddbd v1.4PL0 Copyright (c) Steve Scherf et al.
# Submitted via: audiograbber 1.81.01
#
DISCID=980a830c
DTITLE=Gilda Giuliani - I Grandi Successi Originali cd2
DYEAR=1900
DGENRE=Pop
TTITLE0=Amare due volte
TTITLE1=L'amore non è una melodia
TTITLE2=Luciana
TTITLE3=Quelle tue promesse
TTITLE4=Tanto tempo fà
TTITLE5=E questione di pelle
TTITLE6=Dio che tutto puoi
TTITLE7=Facciamoci coraggio
TTITLE8=Senza titolo
TTITLE9=Quando verrà
TTITLE10=Io me ne andrei
TTITLE11=Main title theme from superman
EXTD=
EXTT0=
EXTT1=
EXTT2=
EXTT3=
EXTT4=
EXTT5=
EXTT6=
EXTT7=
EXTT8=
EXTT9=
EXTT10=
EXTT11=
PLAYORDER=
